<svg width="100%" viewBox="0 0 1200 250" xmlns="http://www.w3.org/2000/svg">
  <defs>
    <style>
      @import url('https://fonts.googleapis.com/css2?family=Space+Grotesk:wght@300;400;700&amp;display=swap');
      .arc-bg { fill: #000000; }
      .section-label { font-family: 'Space Grotesk', system-ui, sans-serif; font-size: 16px; font-weight: 700; fill: #E3FF00; letter-spacing: 4px; text-transform: uppercase; }
    </style>
  </defs>
  <rect width="100%" height="100%" class="arc-bg" />
  
  <!-- Title -->
  <g transform="translate(50, 40)">
    <rect x="-10" y="-12" width="4" height="16" fill="#E3FF00" rx="2" />
    <text x="0" y="0" class="section-label">LIVE DATA ARCHITECTURE</text>
  </g>

  <!-- GitHub Stats (approx width 390) -->
  <g transform="translate(45, 60) scale(0.85)">
    <svg width="390" height="165" viewBox="0 0 390 165">
      <svg
        width="389.43750000000006"
        height="165"
        viewBox="0 0 389.43750000000006 165"
        fill="none"
        xmlns="http://www.w3.org/2000/svg"
        role="img"
        aria-labelledby="descId"
      >
        <title id="titleId">Vladyslav Makarenko's GitHub Stats, Rank: C+</title>
        <desc id="descId">Total Stars Earned: 2, Total Commits  (last year) : 61, Total PRs: 46, Total Issues: 0, Contributed to (last year): 0</desc>
        <style>
          .header {
            font: 600 18px 'Segoe UI', Ubuntu, Sans-Serif;
            fill: #E3FF00;
            animation: fadeInAnimation 0.8s ease-in-out forwards;
          }
          @supports(-moz-appearance: auto) {
            /* Selector detects Firefox */
            .header { font-size: 15.5px; }
          }
          
    .stat {
      font: 600 14px 'Segoe UI', Ubuntu, "Helvetica Neue", Sans-Serif; fill: #ffffff;
    }
    @supports(-moz-appearance: auto) {
      /* Selector detects Firefox */
      .stat { font-size:12px; }
    }
    .stagger {
      opacity: 0;
      animation: fadeInAnimation 0.3s ease-in-out forwards;
    }
    .rank-text {
      font: 800 24px 'Segoe UI', Ubuntu, Sans-Serif; fill: #ffffff;
      animation: scaleInAnimation 0.3s ease-in-out forwards;
    }
    .rank-percentile-header {
      font-size: 14px;
    }
    .rank-percentile-text {
      font-size: 16px;
    }
    
    .not_bold { font-weight: 400 }
    .bold { font-weight: 700 }
    .icon {
      fill: #E3FF00;
      display: block;
    }

    .rank-circle-rim {
      stroke: #E3FF00;
      fill: none;
      stroke-width: 6;
      opacity: 0.2;
    }
    .rank-circle {
      stroke: #E3FF00;
      stroke-dasharray: 250;
      fill: none;
      stroke-width: 6;
      stroke-linecap: round;
      opacity: 0.8;
      transform-origin: -10px 8px;
      transform: rotate(-90deg);
      animation: rankAnimation 1s forwards ease-in-out;
    }
    
    @keyframes rankAnimation {
      from {
        stroke-dashoffset: 251.32741228718345;
      }
      to {
        stroke-dashoffset: 204.1089119931069;
      }
    }
  
  

          
      /* Animations */
      @keyframes scaleInAnimation {
        from {
          transform: translate(-5px, 5px) scale(0);
        }
        to {
          transform: translate(-5px, 5px) scale(1);
        }
      }
      @keyframes fadeInAnimation {
        from {
          opacity: 0;
        }
        to {
          opacity: 1;
        }
      }
    
          
        </style>

        

        

        

        <g
          data-testid="main-card-body"
          transform="translate(0, 25)"
        >
          
    
    <svg x="0" y="0">
      <g transform="translate(0, 0)">
    <g class="stagger" style="animation-delay: 450ms" transform="translate(25, 0)">
      
    <svg data-testid="icon" class="icon" viewBox="0 0 16 16" version="1.1" width="16" height="16">
      <path fill-rule="evenodd" d="M8 .25a.75.75 0 01.673.418l1.882 3.815 4.21.612a.75.75 0 01.416 1.279l-3.046 2.97.719 4.192a.75.75 0 01-1.088.791L8 12.347l-3.766 1.98a.75.75 0 01-1.088-.79l.72-4.194L.818 6.374a.75.75 0 01.416-1.28l4.21-.611L7.327.668A.75.75 0 018 .25zm0 2.445L6.615 5.5a.75.75 0 01-.564.41l-3.097.45 2.24 2.184a.75.75 0 01.216.664l-.528 3.084 2.769-1.456a.75.75 0 01.698 0l2.77 1.456-.53-3.084a.75.75 0 01.216-.664l2.24-2.183-3.096-.45a.75.75 0 01-.564-.41L8 2.694v.001z"/>
    </svg>
  
      <text class="stat  bold" x="25" y="12.5">Total Stars Earned:</text>
      <text
        class="stat  bold"
        x="219.01"
        y="12.5"
        data-testid="stars"
      >2</text>
    </g>
  </g><g transform="translate(0, 25)">
    <g class="stagger" style="animation-delay: 600ms" transform="translate(25, 0)">
      
    <svg data-testid="icon" class="icon" viewBox="0 0 16 16" version="1.1" width="16" height="16">
      <path fill-rule="evenodd" d="M1.643 3.143L.427 1.927A.25.25 0 000 2.104V5.75c0 .138.112.25.25.25h3.646a.25.25 0 00.177-.427L2.715 4.215a6.5 6.5 0 11-1.18 4.458.75.75 0 10-1.493.154 8.001 8.001 0 101.6-5.684zM7.75 4a.75.75 0 01.75.75v2.992l2.028.812a.75.75 0 01-.557 1.392l-2.5-1A.75.75 0 017 8.25v-3.5A.75.75 0 017.75 4z"/>
    </svg>
  
      <text class="stat  bold" x="25" y="12.5">Total Commits (last year):</text>
      <text
        class="stat  bold"
        x="219.01"
        y="12.5"
        data-testid="commits"
      >61</text>
    </g>
  </g><g transform="translate(0, 50)">
    <g class="stagger" style="animation-delay: 750ms" transform="translate(25, 0)">
      
    <svg data-testid="icon" class="icon" viewBox="0 0 16 16" version="1.1" width="16" height="16">
      <path fill-rule="evenodd" d="M7.177 3.073L9.573.677A.25.25 0 0110 .854v4.792a.25.25 0 01-.427.177L7.177 3.427a.25.25 0 010-.354zM3.75 2.5a.75.75 0 100 1.5.75.75 0 000-1.5zm-2.25.75a2.25 2.25 0 113 2.122v5.256a2.251 2.251 0 11-1.5 0V5.372A2.25 2.25 0 011.5 3.25zM11 2.5h-1V4h1a1 1 0 011 1v5.628a2.251 2.251 0 101.5 0V5A2.5 2.5 0 0011 2.5zm1 10.25a.75.75 0 111.5 0 .75.75 0 01-1.5 0zM3.75 12a.75.75 0 100 1.5.75.75 0 000-1.5z"/>
    </svg>
  
      <text class="stat  bold" x="25" y="12.5">Total PRs:</text>
      <text
        class="stat  bold"
        x="219.01"
        y="12.5"
        data-testid="prs"
      >46</text>
    </g>
  </g><g transform="translate(0, 75)">
    <g class="stagger" style="animation-delay: 900ms" transform="translate(25, 0)">
      
    <svg data-testid="icon" class="icon" viewBox="0 0 16 16" version="1.1" width="16" height="16">
      <path fill-rule="evenodd" d="M8 1.5a6.5 6.5 0 100 13 6.5 6.5 0 000-13zM0 8a8 8 0 1116 0A8 8 0 010 8zm9 3a1 1 0 11-2 0 1 1 0 012 0zm-.25-6.25a.75.75 0 00-1.5 0v3.5a.75.75 0 001.5 0v-3.5z"/>
    </svg>
  
      <text class="stat  bold" x="25" y="12.5">Total Issues:</text>
      <text
        class="stat  bold"
        x="219.01"
        y="12.5"
        data-testid="issues"
      >0</text>
    </g>
  </g><g transform="translate(0, 100)">
    <g class="stagger" style="animation-delay: 1050ms" transform="translate(25, 0)">
      
    <svg data-testid="icon" class="icon" viewBox="0 0 16 16" version="1.1" width="16" height="16">
      <path fill-rule="evenodd" d="M2 2.5A2.5 2.5 0 014.5 0h8.75a.75.75 0 01.75.75v12.5a.75.75 0 01-.75.75h-2.5a.75.75 0 110-1.5h1.75v-2h-8a1 1 0 00-.714 1.7.75.75 0 01-1.072 1.05A2.495 2.495 0 012 11.5v-9zm10.5-1V9h-8c-.356 0-.694.074-1 .208V2.5a1 1 0 011-1h8zM5 12.25v3.25a.25.25 0 00.4.2l1.45-1.087a.25.25 0 01.3 0L8.6 15.7a.25.25 0 00.4-.2v-3.25a.25.25 0 00-.25-.25h-3.5a.25.25 0 00-.25.25z"/>
    </svg>
  
      <text class="stat  bold" x="25" y="12.5">Contributed to (last year):</text>
      <text
        class="stat  bold"
        x="219.01"
        y="12.5"
        data-testid="contribs"
      >0</text>
    </g>
  </g>
    </svg>
  
        </g>
      </svg>
    </svg>
  </g>
  
  <!-- Streak Stats (approx width 495) -->
  <g transform="translate(405, 45) scale(0.85)">
    <svg width="495" height="195" viewBox="0 0 495 195">
      <svg xmlns='http://www.w3.org/2000/svg' xmlns:xlink='http://www.w3.org/1999/xlink'
                style='isolation: isolate' viewBox='0 0 495 195' width='495px' height='195px' direction='ltr'>
        <style>
            @keyframes currstreak {
                0% { font-size: 3px; opacity: 0.2; }
                80% { font-size: 34px; opacity: 1; }
                100% { font-size: 28px; opacity: 1; }
            }
            @keyframes fadein {
                0% { opacity: 0; }
                100% { opacity: 1; }
            }
        </style>
        <defs>
            <clipPath id='outer_rectangle'>
                <rect width='495' height='195' rx='4.5'/>
            </clipPath>
            <mask id='mask_out_ring_behind_fire'>
                <rect width='495' height='195' fill='white'/>
                <ellipse id='mask-ellipse' cx='247.5' cy='32' rx='13' ry='18' fill='black'/>
            </mask>
            
        </defs>
        <g clip-path='url(#outer_rectangle)'>
            <g style='isolation: isolate'>
                <rect stroke='#000000' stroke-opacity='0' fill='#000000' rx='4.5' x='0.5' y='0.5' width='494' height='194'/>
            </g>
            <g style='isolation: isolate'>
                <line x1='165' y1='28' x2='165' y2='170' vector-effect='non-scaling-stroke' stroke-width='1' stroke='#E4E2E2' stroke-linejoin='miter' stroke-linecap='square' stroke-miterlimit='3'/>
                <line x1='330' y1='28' x2='330' y2='170' vector-effect='non-scaling-stroke' stroke-width='1' stroke='#E4E2E2' stroke-linejoin='miter' stroke-linecap='square' stroke-miterlimit='3'/>
            </g>
            <g style='isolation: isolate'>
                <!-- Total Contributions big number -->
                <g transform='translate(82.5, 48)'>
                    <text x='0' y='32' stroke-width='0' text-anchor='middle' fill='#ffffff' stroke='none' font-family='"Segoe UI", Ubuntu, sans-serif' font-weight='700' font-size='28px' font-style='normal' style='opacity: 0; animation: fadein 0.5s linear forwards 0.6s'>
                        1,308
                    </text>
                </g>

                <!-- Total Contributions label -->
                <g transform='translate(82.5, 84)'>
                    <text x='0' y='32' stroke-width='0' text-anchor='middle' fill='#ffffff' stroke='none' font-family='"Segoe UI", Ubuntu, sans-serif' font-weight='400' font-size='14px' font-style='normal' style='opacity: 0; animation: fadein 0.5s linear forwards 0.7s'>
                        Total Contributions
                    </text>
                </g>

                <!-- Total Contributions range -->
                <g transform='translate(82.5, 114)'>
                    <text x='0' y='32' stroke-width='0' text-anchor='middle' fill='#888888' stroke='none' font-family='"Segoe UI", Ubuntu, sans-serif' font-weight='400' font-size='12px' font-style='normal' style='opacity: 0; animation: fadein 0.5s linear forwards 0.8s'>
                        Aug 26, 2017 - Present
                    </text>
                </g>
            </g>
            <g style='isolation: isolate'>
                <!-- Current Streak label -->
                <g transform='translate(247.5, 108)'>
                    <text x='0' y='32' stroke-width='0' text-anchor='middle' fill='#ffffff' stroke='none' font-family='"Segoe UI", Ubuntu, sans-serif' font-weight='700' font-size='14px' font-style='normal' style='opacity: 0; animation: fadein 0.5s linear forwards 0.9s'>
                        Current Streak
                    </text>
                </g>

                <!-- Current Streak range -->
                <g transform='translate(247.5, 145)'>
                    <text x='0' y='21' stroke-width='0' text-anchor='middle' fill='#888888' stroke='none' font-family='"Segoe UI", Ubuntu, sans-serif' font-weight='400' font-size='12px' font-style='normal' style='opacity: 0; animation: fadein 0.5s linear forwards 0.9s'>
                        Apr 23
                    </text>
                </g>

                <!-- Ring around number -->
                <g mask='url(#mask_out_ring_behind_fire)'>
                    <circle cx='247.5' cy='71' r='40' fill='none' stroke='#e3ff00' stroke-width='5' style='opacity: 0; animation: fadein 0.5s linear forwards 0.4s'></circle>
                </g>
                <!-- Fire icon -->
                <g transform='translate(247.5, 19.5)' stroke-opacity='0' style='opacity: 0; animation: fadein 0.5s linear forwards 0.6s'>
                    <path d='M -12 -0.5 L 15 -0.5 L 15 23.5 L -12 23.5 L -12 -0.5 Z' fill='none'/>
                    <path d='M 1.5 0.67 C 1.5 0.67 2.24 3.32 2.24 5.47 C 2.24 7.53 0.89 9.2 -1.17 9.2 C -3.23 9.2 -4.79 7.53 -4.79 5.47 L -4.76 5.11 C -6.78 7.51 -8 10.62 -8 13.99 C -8 18.41 -4.42 22 0 22 C 4.42 22 8 18.41 8 13.99 C 8 8.6 5.41 3.79 1.5 0.67 Z M -0.29 19 C -2.07 19 -3.51 17.6 -3.51 15.86 C -3.51 14.24 -2.46 13.1 -0.7 12.74 C 1.07 12.38 2.9 11.53 3.92 10.16 C 4.31 11.45 4.51 12.81 4.51 14.2 C 4.51 16.85 2.36 19 -0.29 19 Z' fill='#e3ff00' stroke-opacity='0'/>
                </g>

                <!-- Current Streak big number -->
                <g transform='translate(247.5, 48)'>
                    <text x='0' y='32' stroke-width='0' text-anchor='middle' fill='#e3ff00' stroke='none' font-family='"Segoe UI", Ubuntu, sans-serif' font-weight='700' font-size='28px' font-style='normal' style='animation: currstreak 0.6s linear forwards'>
                        0
                    </text>
                </g>

            </g>
            <g style='isolation: isolate'>
                <!-- Longest Streak big number -->
                <g transform='translate(412.5, 48)'>
                    <text x='0' y='32' stroke-width='0' text-anchor='middle' fill='#ffffff' stroke='none' font-family='"Segoe UI", Ubuntu, sans-serif' font-weight='700' font-size='28px' font-style='normal' style='opacity: 0; animation: fadein 0.5s linear forwards 1.2s'>
                        25
                    </text>
                </g>

                <!-- Longest Streak label -->
                <g transform='translate(412.5, 84)'>
                    <text x='0' y='32' stroke-width='0' text-anchor='middle' fill='#ffffff' stroke='none' font-family='"Segoe UI", Ubuntu, sans-serif' font-weight='400' font-size='14px' font-style='normal' style='opacity: 0; animation: fadein 0.5s linear forwards 1.3s'>
                        Longest Streak
                    </text>
                </g>

                <!-- Longest Streak range -->
                <g transform='translate(412.5, 114)'>
                    <text x='0' y='32' stroke-width='0' text-anchor='middle' fill='#888888' stroke='none' font-family='"Segoe UI", Ubuntu, sans-serif' font-weight='400' font-size='12px' font-style='normal' style='opacity: 0; animation: fadein 0.5s linear forwards 1.4s'>
                        Sep 23, 2024 - Oct 17, 2024
                    </text>
                </g>
            </g>
            
        </g>
    </svg>
    </svg>
  </g>
  
  <!-- Top Langs (approx width 300) -->
  <g transform="translate(855, 87) scale(0.85)">
    <svg width="300" height="110" viewBox="0 0 300 110">
      <svg
        width="300"
        height="110"
        viewBox="0 0 300 110"
        fill="none"
        xmlns="http://www.w3.org/2000/svg"
        role="img"
        aria-labelledby="descId"
      >
        <title id="titleId"></title>
        <desc id="descId"></desc>
        <style>
          .header {
            font: 600 18px 'Segoe UI', Ubuntu, Sans-Serif;
            fill: #E3FF00;
            animation: fadeInAnimation 0.8s ease-in-out forwards;
          }
          @supports(-moz-appearance: auto) {
            /* Selector detects Firefox */
            .header { font-size: 15.5px; }
          }
          
    @keyframes slideInAnimation {
      from {
        width: 0;
      }
      to {
        width: calc(100%-100px);
      }
    }
    @keyframes growWidthAnimation {
      from {
        width: 0;
      }
      to {
        width: 100%;
      }
    }
    .stat {
      font: 600 14px 'Segoe UI', Ubuntu, "Helvetica Neue", Sans-Serif; fill: #ffffff;
    }
    @supports(-moz-appearance: auto) {
      /* Selector detects Firefox */
      .stat { font-size:12px; }
    }
    .bold { font-weight: 700 }
    .lang-name {
      font: 400 11px "Segoe UI", Ubuntu, Sans-Serif;
      fill: #ffffff;
    }
    .stagger {
      opacity: 0;
      animation: fadeInAnimation 0.3s ease-in-out forwards;
    }
    #rect-mask rect{
      animation: slideInAnimation 1s ease-in-out forwards;
    }
    .lang-progress{
      animation: growWidthAnimation 0.6s ease-in-out forwards;
    }
    

          
      /* Animations */
      @keyframes scaleInAnimation {
        from {
          transform: translate(-5px, 5px) scale(0);
        }
        to {
          transform: translate(-5px, 5px) scale(1);
        }
      }
      @keyframes fadeInAnimation {
        from {
          opacity: 0;
        }
        to {
          opacity: 1;
        }
      }
    
          
        </style>

        

        

        

        <g
          data-testid="main-card-body"
          transform="translate(0, 25)"
        >
          
    <svg data-testid="lang-items" x="25">
      
  
      <mask id="rect-mask">
          <rect x="0" y="0" width="250" height="8" fill="white" rx="5"/>
        </mask>
        
        <rect
          mask="url(#rect-mask)"
          data-testid="lang-progress"
          x="0"
          y="0"
          width="92.68"
          height="8"
          fill="#3178c6"
        />
      
        <rect
          mask="url(#rect-mask)"
          data-testid="lang-progress"
          x="92.68"
          y="0"
          width="62.72"
          height="8"
          fill="#f1e05a"
        />
      
        <rect
          mask="url(#rect-mask)"
          data-testid="lang-progress"
          x="155.4"
          y="0"
          width="47.92"
          height="8"
          fill="#e34c26"
        />
      
        <rect
          mask="url(#rect-mask)"
          data-testid="lang-progress"
          x="203.32"
          y="0"
          width="46.68"
          height="8"
          fill="#663399"
        />
      
      
    <g transform="translate(0, 25)">
      <g transform="translate(0, 0)"><g transform="translate(0, 0)">
    <g class="stagger" style="animation-delay: 450ms">
      <circle cx="5" cy="6" r="5" fill="#3178c6" />
      <text data-testid="lang-name" x="15" y="10" class='lang-name'>
        TypeScript 37.07%
      </text>
    </g>
  </g><g transform="translate(0, 25)">
    <g class="stagger" style="animation-delay: 600ms">
      <circle cx="5" cy="6" r="5" fill="#f1e05a" />
      <text data-testid="lang-name" x="15" y="10" class='lang-name'>
        JavaScript 25.09%
      </text>
    </g>
  </g></g><g transform="translate(150, 0)"><g transform="translate(0, 0)">
    <g class="stagger" style="animation-delay: 450ms">
      <circle cx="5" cy="6" r="5" fill="#e34c26" />
      <text data-testid="lang-name" x="15" y="10" class='lang-name'>
        HTML 19.17%
      </text>
    </g>
  </g><g transform="translate(0, 25)">
    <g class="stagger" style="animation-delay: 600ms">
      <circle cx="5" cy="6" r="5" fill="#663399" />
      <text data-testid="lang-name" x="15" y="10" class='lang-name'>
        CSS 18.67%
      </text>
    </g>
  </g></g>
    </g>
  
    </svg>
  
        </g>
      </svg>
    </svg>
  </g>
</svg>